<svg width="50" height="50" viewBox="0 0 50 50" fill="none" xmlns="http://www.w3.org/2000/svg">
<path d="M0.5 10C0.5 4.75329 4.75329 0.5 10 0.5H40C45.2467 0.5 49.5 4.7533 49.5 10V40C49.5 45.2467 45.2467 49.5 40 49.5H10C4.75329 49.5 0.5 45.2467 0.5 40V10Z" stroke="white"/>
<path d="M20.2174 27.5C20.2174 28.8807 21.3853 30 22.8261 30C24.2668 30 25.4348 28.8807 25.4348 27.5C25.4348 26.1193 24.2668 25 22.8261 25C21.3853 25 20.2174 26.1193 20.2174 27.5ZM20.2174 27.5V22.5C20.2174 21.837 20.4922 21.2011 20.9815 20.7322C21.4707 20.2634 22.1342 20 22.8261 20H24.5652M15 30C15 30 15 23.9052 15 20M29.7826 25H32.3913M35 25H32.3913M32.3913 22.5V25M32.3913 27.5V25" stroke="white" stroke-width="2" stroke-linecap="round" stroke-linejoin="round"/>
</svg>
