<svg width="50" height="50" viewBox="0 0 50 50" fill="none" xmlns="http://www.w3.org/2000/svg">
<path d="M0.5 10C0.5 4.75329 4.75329 0.5 10 0.5H40C45.2467 0.5 49.5 4.7533 49.5 10V40C49.5 45.2467 45.2467 49.5 40 49.5H10C4.75329 49.5 0.5 45.2467 0.5 40V10Z" stroke="white"/>
<path d="M35.6667 22.3333V17.6667C35.6667 16.5621 34.7713 15.6667 33.6667 15.6667H16.3334C15.2288 15.6667 14.3334 16.5621 14.3334 17.6667V22.3333M35.6667 22.3333V35C35.6667 36.1046 34.7713 37 33.6667 37H16.3334C15.2288 37 14.3334 36.1046 14.3334 35V22.3333M35.6667 22.3333H14.3334M19.6667 13V18.3333M30.3334 13V18.3333" stroke="white" stroke-width="2" stroke-linecap="round"/>
</svg>
