<svg width="50" height="50" viewBox="0 0 50 50" fill="none" xmlns="http://www.w3.org/2000/svg">
<path d="M0.5 10C0.5 4.75329 4.75329 0.5 10 0.5H40C45.2467 0.5 49.5 4.7533 49.5 10V40C49.5 45.2467 45.2467 49.5 40 49.5H10C4.75329 49.5 0.5 45.2467 0.5 40V10Z" stroke="white"/>
<path d="M30.3333 19.6667V15.0009C30.3333 13.8919 30.3333 13.3374 30.0997 12.9966C29.8956 12.6989 29.5795 12.4967 29.2237 12.4361C28.8164 12.3668 28.3129 12.5992 27.306 13.0639L15.4787 18.5227C14.5807 18.9371 14.1317 19.1444 13.8028 19.4658C13.5121 19.7499 13.2902 20.0967 13.154 20.4798C13 20.9131 13 21.4076 13 22.3966V29M31 28.3333H31.0133M13 23.9333L13 32.7333C13 34.2268 13 34.9736 13.2906 35.544C13.5463 36.0458 13.9543 36.4537 14.456 36.7094C15.0265 37 15.7732 37 17.2667 37H32.7333C34.2268 37 34.9735 37 35.544 36.7094C36.0457 36.4537 36.4537 36.0458 36.7094 35.544C37 34.9736 37 34.2268 37 32.7333V23.9333C37 22.4399 37 21.6931 36.7094 21.1227C36.4537 20.6209 36.0457 20.213 35.544 19.9573C34.9735 19.6667 34.2268 19.6667 32.7333 19.6667L17.2667 19.6667C15.7732 19.6667 15.0265 19.6667 14.456 19.9573C13.9543 20.213 13.5463 20.6209 13.2906 21.1227C13 21.6931 13 22.4399 13 23.9333ZM31.6667 28.3333C31.6667 28.7015 31.3682 29 31 29C30.6318 29 30.3333 28.7015 30.3333 28.3333C30.3333 27.9652 30.6318 27.6667 31 27.6667C31.3682 27.6667 31.6667 27.9652 31.6667 28.3333Z" stroke="white" stroke-width="2" stroke-linecap="round" stroke-linejoin="round"/>
</svg>
