<svg width="50" height="50" viewBox="0 0 50 50" fill="none" xmlns="http://www.w3.org/2000/svg">
<path d="M0 10C0 4.47715 4.47715 0 10 0H40C45.5228 0 50 4.47715 50 10V40C50 45.5228 45.5228 50 40 50H10C4.47715 50 0 45.5228 0 40V10Z" fill="#7027E2"/>
<path d="M25 33H25.0133M21.2293 29.2293C22.2295 28.2295 23.5858 27.6678 25 27.6678C26.4142 27.6678 27.7705 28.2295 28.7707 29.2293M28.16 22.8107C29.8168 23.328 31.3216 24.2436 32.5426 25.4773M22.5467 17.1867C25.0335 16.8011 27.5761 17.0075 29.9682 17.7892C32.3602 18.5708 34.5341 19.9057 36.3134 21.6853M13 13L37 37M17.4573 25.4573C18.8712 24.0394 20.6573 23.0503 22.6093 22.604L17.4573 25.4573ZM13.6867 21.6867C15.0513 20.3192 16.6522 19.2102 18.412 18.4133L13.6867 21.6867Z" stroke="white" stroke-width="2" stroke-linecap="round" stroke-linejoin="round"/>
</svg>
